<svg xmlns="http://www.w3.org/2000/svg" width="22" height="22" version="1.1">
 <g id="active-center">
  <g transform="translate(-403 -54)">
   <g transform="translate(-239,242.64)" opacity=".7">
    <g transform="translate(-678,-432.64)">
     <g transform="translate(-103)">
      <g transform="translate(58)">
       <path transform="translate(962,190)" d="m411 61.922h0.75c8e-3 -9e-5 0.0156-3.45e-4 0.0234 0 0.19121 0.0084 0.3824 0.09643 0.51562 0.23438l1.711 1.7109 1.7344-1.7109c0.19921-0.17288 0.335-0.22912 0.51562-0.23438h0.75v0.75c0 0.21485-0.0258 0.41299-0.1875 0.5625l-1.7109 1.7109 1.6875 1.6875c0.14114 0.14113 0.21093 0.34009 0.21094 0.53906v0.75h-0.75c-0.19898-8e-6 -0.39794-0.06982-0.53906-0.21094l-1.7109-1.7109-1.7109 1.7109c-0.14112 0.14114-0.34009 0.21094-0.53906 0.21094h-0.75v-0.75c0-0.19897 0.0698-0.39794 0.21094-0.53906l1.7109-1.6875-1.7109-1.7109c-0.15806-0.14597-0.22737-0.35194-0.21094-0.5625z" fill="#515a59" />
      </g>
     </g>
     <g transform="translate(1323,246.87)" fill="#ffffff" />
    </g>
    <rect x="645" y="-185.64" width="16" height="16" fill="none" />
   </g>
  </g>
 </g>
 <g id="hover-center">
  <g transform="translate(-421 -91)">
   <g transform="matrix(1.375 0 0 1.375 -324.25 346.25)">
    <g transform="translate(-781,-432.64)">
     <g transform="translate(-103)">
      <g transform="translate(58)">
       <path transform="matrix(.72727 0 0 .72727 1238.5 113.91)" d="m189 184c-5.5228 3e-5 -10 4.4772-10 10s4.4772 10 10 10c5.5228-3e-5 10-4.4772 10-10s-4.4772-10-10-10zm-3.9961 6h1c0.0138-1.2e-4 0.0197-4.7e-4 0.0293 0 0.25479 0.011 0.50985 0.12844 0.6875 0.3125l2.2812 2.2812 2.3106-2.2812c0.26536-0.23049 0.44659-0.3055 0.68749-0.3125h1v1c0 0.28647-0.0345 0.55067-0.25 0.75l-2.2793 2.2812 2.248 2.25c0.1881 0.18816 0.28125 0.45346 0.28125 0.71875v1h-1c-0.26524-1e-5 -0.53051-0.0931-0.71875-0.28125l-2.2793-2.2812-2.2812 2.2812c-0.18796 0.18818-0.45351 0.28125-0.71875 0.28125h-0.99804v-1c0-0.26528 0.0921-0.5306 0.28125-0.71875l2.2793-2.25-2.2793-2.2812c-0.21065-0.19462-0.30312-0.46925-0.28125-0.75z" fill="#f46067" />
      </g>
     </g>
     <g transform="translate(1323,246.87)" fill="#ffffff" />
    </g>
    <rect x="542" y="-185.64" width="16" height="16" fill="none" />
   </g>
  </g>
 </g>
 <g id="pressed-center">
  <g transform="translate(-421 -116)">
   <g transform="matrix(1.375 0 0 1.375 -324.25 371.25)">
    <g transform="translate(-781,-432.64)">
     <g transform="translate(-103)">
      <g transform="translate(58)">
       <path transform="matrix(.72727 0 0 .72727 1238.5 113.91)" d="m189 184c-5.5228 3e-5 -10 4.4772-10 10s4.4772 10 10 10c5.5228-3e-5 10-4.4772 10-10s-4.4772-10-10-10zm-3.9961 6h1c0.0138-1.2e-4 0.0197-4.7e-4 0.0293 0 0.25479 0.011 0.50985 0.12844 0.6875 0.3125l2.2812 2.2812 2.3106-2.2812c0.26536-0.23049 0.44659-0.3055 0.68749-0.3125h1v1c0 0.28647-0.0345 0.55067-0.25 0.75l-2.2793 2.2812 2.248 2.25c0.1881 0.18816 0.28125 0.45346 0.28125 0.71875v1h-1c-0.26524-1e-5 -0.53051-0.0931-0.71875-0.28125l-2.2793-2.2812-2.2812 2.2812c-0.18796 0.18818-0.45351 0.28125-0.71875 0.28125h-0.99804v-1c0-0.26528 0.0921-0.5306 0.28125-0.71875l2.2793-2.25-2.2793-2.2812c-0.21065-0.19462-0.30312-0.46925-0.28125-0.75z" fill="#da4d54" />
      </g>
     </g>
     <g transform="translate(1323,246.87)" fill="#ffffff" />
    </g>
    <rect x="542" y="-185.64" width="16" height="16" fill="none" />
   </g>
  </g>
 </g>
 <g id="inactive-center">
  <g transform="translate(-403 -71)">
   <g transform="translate(-239,259.64)" opacity=".4">
    <g transform="translate(-678,-432.64)" opacity="1">
     <g transform="translate(-103)" opacity="1">
      <g transform="translate(58)">
       <path transform="translate(962,190)" d="m411 61.922h0.75c8e-3 -9e-5 0.0156-3.45e-4 0.0234 0 0.19121 0.0084 0.3824 0.09643 0.51562 0.23438l1.711 1.7109 1.7344-1.7109c0.19921-0.17288 0.335-0.22912 0.51562-0.23438h0.75v0.75c0 0.21485-0.0258 0.41299-0.1875 0.5625l-1.7109 1.7109 1.6875 1.6875c0.14114 0.14113 0.21093 0.34009 0.21094 0.53906v0.75h-0.75c-0.19898-8e-6 -0.39794-0.06982-0.53906-0.21094l-1.7109-1.7109-1.7109 1.7109c-0.14112 0.14114-0.34009 0.21094-0.53906 0.21094h-0.75v-0.75c0-0.19897 0.0698-0.39794 0.21094-0.53906l1.7109-1.6875-1.7109-1.7109c-0.15806-0.14597-0.22737-0.35194-0.21094-0.5625z" fill="#515a59" />
      </g>
     </g>
     <g transform="translate(1323,246.87)" fill="#ffffff" />
    </g>
    <rect x="645" y="-185.64" width="16" height="16" fill="none" opacity="1" />
   </g>
  </g>
 </g>
 <g id="deactivated-center">
  <g transform="translate(-403 -71)">
   <g transform="translate(-239,259.64)" opacity=".4">
    <g transform="translate(-678,-432.64)" opacity="1">
     <g transform="translate(-103)" opacity="1">
      <g transform="translate(58)">
       <path transform="translate(962,190)" d="m411 61.922h0.75c8e-3 -9e-5 0.0156-3.45e-4 0.0234 0 0.19121 0.0084 0.3824 0.09643 0.51562 0.23438l1.711 1.7109 1.7344-1.7109c0.19921-0.17288 0.335-0.22912 0.51562-0.23438h0.75v0.75c0 0.21485-0.0258 0.41299-0.1875 0.5625l-1.7109 1.7109 1.6875 1.6875c0.14114 0.14113 0.21093 0.34009 0.21094 0.53906v0.75h-0.75c-0.19898-8e-6 -0.39794-0.06982-0.53906-0.21094l-1.7109-1.7109-1.7109 1.7109c-0.14112 0.14114-0.34009 0.21094-0.53906 0.21094h-0.75v-0.75c0-0.19897 0.0698-0.39794 0.21094-0.53906l1.7109-1.6875-1.7109-1.7109c-0.15806-0.14597-0.22737-0.35194-0.21094-0.5625z" fill="#515a59" />
      </g>
     </g>
     <g transform="translate(1323,246.87)" fill="#ffffff" />
    </g>
    <rect x="645" y="-185.64" width="16" height="16" fill="none" opacity="1" />
   </g>
  </g>
 </g>
</svg>