<svg width="22" height="22" version="1.1" xmlns="http://www.w3.org/2000/svg">
 <g id="active-center" opacity=".7">
  <rect width="22" height="22" fill="none"/>
  <rect x="6.5" y="7" width="9" height="1.8" rx="0.9" fill="#adadad"/><rect x="6.5" y="10.1" width="9" height="1.8" rx="0.9" fill="#adadad"/><rect x="6.5" y="13.2" width="9" height="1.8" rx="0.9" fill="#adadad"/>
 </g>
 <g id="hover-center">
  <circle cx="11" cy="11" r="10" fill="#838383" opacity=".45"/>
  <rect x="6.5" y="7" width="9" height="1.8" rx="0.9" fill="#b0b0b0"/><rect x="6.5" y="10.1" width="9" height="1.8" rx="0.9" fill="#b0b0b0"/><rect x="6.5" y="13.2" width="9" height="1.8" rx="0.9" fill="#b0b0b0"/>
 </g>
 <g id="pressed-center">
  <circle cx="11" cy="11" r="10" fill="#ffffff"/>
  <rect x="6.5" y="7" width="9" height="1.8" rx="0.9" fill="#1a1a1a"/><rect x="6.5" y="10.1" width="9" height="1.8" rx="0.9" fill="#1a1a1a"/><rect x="6.5" y="13.2" width="9" height="1.8" rx="0.9" fill="#1a1a1a"/>
 </g>
 <g id="inactive-center" opacity=".4">
  <rect width="22" height="22" fill="none"/>
  <rect x="6.5" y="7" width="9" height="1.8" rx="0.9" fill="#adadad"/><rect x="6.5" y="10.1" width="9" height="1.8" rx="0.9" fill="#adadad"/><rect x="6.5" y="13.2" width="9" height="1.8" rx="0.9" fill="#adadad"/>
 </g>
 <g id="deactivated-center" opacity=".4">
  <rect width="22" height="22" fill="none"/>
  <rect x="6.5" y="7" width="9" height="1.8" rx="0.9" fill="#adadad"/><rect x="6.5" y="10.1" width="9" height="1.8" rx="0.9" fill="#adadad"/><rect x="6.5" y="13.2" width="9" height="1.8" rx="0.9" fill="#adadad"/>
 </g>
</svg>
