<svg width="22" height="22" version="1.1" xmlns="http://www.w3.org/2000/svg">
 <g id="active-center" opacity=".7">
  <rect width="22" height="22" fill="none"/>
  <path d="m 11,5.8 c -2.1,0 -3.7,1.5 -3.8,3.6 l 1.8,0 c 0.1,-1.1 0.9,-1.8 2,-1.8 1.1,0 2,0.8 2,1.9 0,0.9 -0.5,1.3 -1.4,2 -1,0.75 -1.5,1.4 -1.5,2.7 l 0,0.4 1.8,0 0,-0.3 c 0,-0.85 0.4,-1.25 1.3,-1.9 1,-0.8 1.6,-1.6 1.6,-2.9 0,-2.1 -1.7,-3.7 -3.8,-3.7 z" fill="#adadad"/><circle cx="11" cy="16.1" r="1.15" fill="#adadad"/>
 </g>
 <g id="hover-center">
  <circle cx="11" cy="11" r="10" fill="#838383" opacity=".45"/>
  <path d="m 11,5.8 c -2.1,0 -3.7,1.5 -3.8,3.6 l 1.8,0 c 0.1,-1.1 0.9,-1.8 2,-1.8 1.1,0 2,0.8 2,1.9 0,0.9 -0.5,1.3 -1.4,2 -1,0.75 -1.5,1.4 -1.5,2.7 l 0,0.4 1.8,0 0,-0.3 c 0,-0.85 0.4,-1.25 1.3,-1.9 1,-0.8 1.6,-1.6 1.6,-2.9 0,-2.1 -1.7,-3.7 -3.8,-3.7 z" fill="#b0b0b0"/><circle cx="11" cy="16.1" r="1.15" fill="#b0b0b0"/>
 </g>
 <g id="pressed-center">
  <circle cx="11" cy="11" r="10" fill="#ffffff"/>
  <path d="m 11,5.8 c -2.1,0 -3.7,1.5 -3.8,3.6 l 1.8,0 c 0.1,-1.1 0.9,-1.8 2,-1.8 1.1,0 2,0.8 2,1.9 0,0.9 -0.5,1.3 -1.4,2 -1,0.75 -1.5,1.4 -1.5,2.7 l 0,0.4 1.8,0 0,-0.3 c 0,-0.85 0.4,-1.25 1.3,-1.9 1,-0.8 1.6,-1.6 1.6,-2.9 0,-2.1 -1.7,-3.7 -3.8,-3.7 z" fill="#1a1a1a"/><circle cx="11" cy="16.1" r="1.15" fill="#1a1a1a"/>
 </g>
 <g id="inactive-center" opacity=".4">
  <rect width="22" height="22" fill="none"/>
  <path d="m 11,5.8 c -2.1,0 -3.7,1.5 -3.8,3.6 l 1.8,0 c 0.1,-1.1 0.9,-1.8 2,-1.8 1.1,0 2,0.8 2,1.9 0,0.9 -0.5,1.3 -1.4,2 -1,0.75 -1.5,1.4 -1.5,2.7 l 0,0.4 1.8,0 0,-0.3 c 0,-0.85 0.4,-1.25 1.3,-1.9 1,-0.8 1.6,-1.6 1.6,-2.9 0,-2.1 -1.7,-3.7 -3.8,-3.7 z" fill="#adadad"/><circle cx="11" cy="16.1" r="1.15" fill="#adadad"/>
 </g>
 <g id="deactivated-center" opacity=".4">
  <rect width="22" height="22" fill="none"/>
  <path d="m 11,5.8 c -2.1,0 -3.7,1.5 -3.8,3.6 l 1.8,0 c 0.1,-1.1 0.9,-1.8 2,-1.8 1.1,0 2,0.8 2,1.9 0,0.9 -0.5,1.3 -1.4,2 -1,0.75 -1.5,1.4 -1.5,2.7 l 0,0.4 1.8,0 0,-0.3 c 0,-0.85 0.4,-1.25 1.3,-1.9 1,-0.8 1.6,-1.6 1.6,-2.9 0,-2.1 -1.7,-3.7 -3.8,-3.7 z" fill="#adadad"/><circle cx="11" cy="16.1" r="1.15" fill="#adadad"/>
 </g>
</svg>
