<?xml version="1.0" encoding="UTF-8" standalone="no"?>
<svg
   enable-background="new 0 0 32 32"
   height="16"
   id="Layer_1"
   version="1.1"
   viewBox="0 0 16 16"
   width="16"
   xml:space="preserve"
   xmlns="http://www.w3.org/2000/svg"
   xmlns:svg="http://www.w3.org/2000/svg"
   xmlns:rdf="http://www.w3.org/1999/02/22-rdf-syntax-ns#"
   xmlns:cc="http://creativecommons.org/ns#"
   xmlns:dc="http://purl.org/dc/elements/1.1/"><metadata
     id="metadata26"><rdf:RDF><cc:Work
         rdf:about=""><dc:format>image/svg+xml</dc:format><dc:type
           rdf:resource="http://purl.org/dc/dcmitype/StillImage" /><dc:title /></cc:Work></rdf:RDF></metadata><defs
     id="defs24" /><g
     style="display:inline"
     id="titlebutton-max-hover"
     transform="translate(-513,185.63782)"><g
       id="g4891"
       style="display:inline;opacity:1"
       transform="translate(-781,-432.63782)"><path
         style="display:inline;opacity:1;fill:#808080;fill-opacity:1;stroke:none;stroke-width:0;stroke-linecap:butt;stroke-linejoin:miter;stroke-miterlimit:4;stroke-dasharray:none;stroke-dashoffset:0;stroke-opacity:1"
         d="m 1302,248 a 7,7 0 0 0 -7,7 7,7 0 0 0 7,7 7,7 0 0 0 7,-7 7,7 0 0 0 -7,-7 z m 0,1 a 6,6 0 0 1 6,6 6,6 0 0 1 -6,6 6,6 0 0 1 -6,-6 6,6 0 0 1 6,-6 z"
         id="path4068-7-5-9-6-7-2-5-78" /><g
         id="g4806-9"
         transform="translate(1294,247)"
         style="fill:#c0e3ff;fill-opacity:1"><g
           transform="translate(-81.0002,-967)"
           style="display:inline;fill:#c0e3ff;fill-opacity:1"
           id="layer9-78-7" /><g
           transform="translate(-81.0002,-967)"
           id="layer10-3-3"
           style="fill:#c0e3ff;fill-opacity:1" /><g
           transform="translate(-81.0002,-967)"
           id="layer11-19-75"
           style="fill:#c0e3ff;fill-opacity:1" /><g
           transform="translate(-81.0002,-967)"
           id="layer13-4-9"
           style="fill:#c0e3ff;fill-opacity:1" /><g
           transform="translate(-81.0002,-967)"
           id="layer14-8-5"
           style="fill:#c0e3ff;fill-opacity:1" /><g
           transform="translate(-81.0002,-967)"
           style="display:inline;fill:#c0e3ff;fill-opacity:1"
           id="layer15-5-8" /><g
           transform="translate(-81.0002,-967)"
           style="display:inline;fill:#c0e3ff;fill-opacity:1"
           id="g71291-1-7" /><g
           transform="translate(-81.0002,-967)"
           style="display:inline;fill:#c0e3ff;fill-opacity:1"
           id="g4953-7-1" /><g
           transform="translate(-81.0002,-967)"
           style="display:inline;fill:#c0e3ff;fill-opacity:1"
           id="layer12-3-0" /></g></g><rect
       y="-185.63782"
       x="513"
       height="16"
       width="16"
       id="rect17883-0"
       style="display:inline;opacity:1;fill:none;fill-opacity:1;stroke:none;stroke-width:1;stroke-linecap:butt;stroke-linejoin:miter;stroke-miterlimit:4;stroke-dasharray:none;stroke-dashoffset:0;stroke-opacity:0" /></g></svg>
