<?xml version="1.0" encoding="UTF-8" standalone="no"?>
<svg
   width="26"
   height="26"
   enable-background="new 0 0 16 16"
   version="1.0"
   viewBox="0 0 18.909 18.909"
   id="svg2"
   xmlns="http://www.w3.org/2000/svg"
   xmlns:svg="http://www.w3.org/2000/svg">
  <defs
     id="defs1">
    <filter
       id="a"
       width="1.096"
       height="1.096"
       x="-0.047999999"
       y="-0.047999999"
       color-interpolation-filters="sRGB">
      <feGaussianBlur
         stdDeviation=".32"
         id="feGaussianBlur1" />
    </filter>
  </defs>
  <circle
     cx="9.454"
     cy="10.182"
     r="8"
     filter="url(#a)"
     opacity=".1"
     id="circle1" />
  <circle
     cx="9.454"
     cy="9.454"
     r="8"
     fill="#d8354a"
     id="circle2" />
  <path
     fill="#fff"
     d="M44.226 764.17h1.031c.255.011.51.129.688.313l2.28 2.28 2.313-2.28c.266-.231.447-.306.688-.313h1v1c0 .286-.034.55-.25.75l-2.281 2.281 2.25 2.25c.188.188.281.454.281.719v1h-1c-.265 0-.53-.093-.719-.281l-2.28-2.282-2.282 2.282a1.01 1.01 0 0 1-.719.28h-1v-1c0-.264.093-.53.281-.718l2.282-2.25-2.282-2.281a.91.91 0 0 1-.28-.75z"
     color="#bebebe"
     enable-background="new"
     style="text-decoration-line:none;text-indent:0;text-transform:none"
     transform="translate(-25.614 -549.187)scale(.72727)"
     id="path2" />
</svg>
