<svg width="22" height="22" version="1.1" xmlns="http://www.w3.org/2000/svg">
 <g id="active-center" opacity=".7">
  <rect width="22" height="22" fill="none"/>
  <rect x="6.5" y="7" width="9" height="1.8" rx="0.9" fill="#515a59"/><rect x="6.5" y="10.1" width="9" height="1.8" rx="0.9" fill="#515a59"/><rect x="6.5" y="13.2" width="9" height="1.8" rx="0.9" fill="#515a59"/>
 </g>
 <g id="hover-center">
  <circle cx="11" cy="11" r="10" fill="#3c3c3c" opacity=".25"/>
  <rect x="6.5" y="7" width="9" height="1.8" rx="0.9" fill="#515a59"/><rect x="6.5" y="10.1" width="9" height="1.8" rx="0.9" fill="#515a59"/><rect x="6.5" y="13.2" width="9" height="1.8" rx="0.9" fill="#515a59"/>
 </g>
 <g id="pressed-center">
  <circle cx="11" cy="11" r="10" fill="#2eb398"/>
  <rect x="6.5" y="7" width="9" height="1.8" rx="0.9" fill="#f2f2f2"/><rect x="6.5" y="10.1" width="9" height="1.8" rx="0.9" fill="#f2f2f2"/><rect x="6.5" y="13.2" width="9" height="1.8" rx="0.9" fill="#f2f2f2"/>
 </g>
 <g id="inactive-center" opacity=".4">
  <rect width="22" height="22" fill="none"/>
  <rect x="6.5" y="7" width="9" height="1.8" rx="0.9" fill="#515a59"/><rect x="6.5" y="10.1" width="9" height="1.8" rx="0.9" fill="#515a59"/><rect x="6.5" y="13.2" width="9" height="1.8" rx="0.9" fill="#515a59"/>
 </g>
 <g id="deactivated-center" opacity=".4">
  <rect width="22" height="22" fill="none"/>
  <rect x="6.5" y="7" width="9" height="1.8" rx="0.9" fill="#515a59"/><rect x="6.5" y="10.1" width="9" height="1.8" rx="0.9" fill="#515a59"/><rect x="6.5" y="13.2" width="9" height="1.8" rx="0.9" fill="#515a59"/>
 </g>
</svg>
